<svg width="328" height="497" viewBox="0 0 328 497" fill="none" xmlns="http://www.w3.org/2000/svg">
<path d="M301.163 34.5708C184.363 -26.2292 65.8292 9.23749 21.1625 34.5708C-18.0375 276.171 8.82917 434.571 27.1625 483.571H293.163C325.962 321.171 312.163 116.571 301.163 34.5708Z" stroke="black" stroke-width="2"/>
<path d="M315.163 47.5708C198.363 -13.2292 79.8292 22.2375 35.1625 47.5708C-4.0375 289.171 22.8292 447.571 41.1625 496.571H307.163C339.962 334.171 326.163 129.571 315.163 47.5708Z" fill="#92E3A9"/>
<path d="M58 305H95.5M95.5 305C116.211 305 133 321.621 133 342.125C133 362.629 116.211 379.25 95.5 379.25H58L116.333 437M95.5 305H158M58 342.125H158" stroke="#BDEDCA" stroke-opacity="0.61" stroke-width="15" stroke-linecap="round" stroke-linejoin="round"/>
<circle cx="171" cy="137" r="85" fill="white" stroke="#C0F5CF" stroke-width="4"/>
<path d="M137 315.127C136.708 315.127 135.833 315.726 135.323 316.101C134.448 316.7 133.937 317 133.5 317C133.062 317 132.479 316.7 131.604 316.026C131.094 315.651 130.292 315.127 130 315.127C129.708 315.127 128.906 315.651 128.396 316.026C127.521 316.625 127.01 317 126.5 317C125.917 317 125.333 316.55 124.677 316.026C124.094 315.651 123.438 315.127 123 315.127C123 315.202 123 313.928 123 314.003C123.729 314.003 124.531 314.603 125.26 315.127C125.625 315.427 126.281 315.876 126.5 315.876C126.719 315.876 127.375 315.427 127.74 315.127C128.542 314.528 129.344 314.003 129.927 314.003C130.437 314.003 131.094 314.453 132.115 315.127C132.552 315.427 133.208 315.876 133.427 315.876C133.573 315.876 134.156 315.427 134.594 315.127C135.542 314.528 136.344 314.003 137 314.003" fill="#DBFF00"/>
<path d="M151 315.127C150.708 315.127 149.833 315.726 149.323 316.101C148.448 316.7 147.937 317 147.5 317C147.062 317 146.479 316.7 145.604 316.026C145.094 315.651 144.292 315.127 144 315.127C143.708 315.127 142.906 315.651 142.396 316.026C141.521 316.625 141.01 317 140.5 317C139.917 317 139.333 316.55 138.677 316.026C138.094 315.651 137.438 315.127 137 315.127C137 315.202 137 313.928 137 314.003C137.729 314.003 138.531 314.603 139.26 315.127C139.625 315.427 140.281 315.876 140.5 315.876C140.719 315.876 141.375 315.427 141.74 315.127C142.542 314.528 143.344 314.003 143.927 314.003C144.437 314.003 145.094 314.453 146.115 315.127C146.552 315.427 147.208 315.876 147.427 315.876C147.573 315.876 148.156 315.427 148.594 315.127C149.542 314.528 150.344 314.003 151 314.003" fill="#DBFF00"/>
<path d="M165 315.127C164.708 315.127 163.833 315.726 163.323 316.101C162.448 316.7 161.937 317 161.5 317C161.062 317 160.479 316.7 159.604 316.026C159.094 315.651 158.292 315.127 158 315.127C157.708 315.127 156.906 315.651 156.396 316.026C155.521 316.625 155.01 317 154.5 317C153.917 317 153.333 316.55 152.677 316.026C152.094 315.651 151.438 315.127 151 315.127C151 315.202 151 313.928 151 314.003C151.729 314.003 152.531 314.603 153.26 315.127C153.625 315.427 154.281 315.876 154.5 315.876C154.719 315.876 155.375 315.427 155.74 315.127C156.542 314.528 157.344 314.003 157.927 314.003C158.437 314.003 159.094 314.453 160.115 315.127C160.552 315.427 161.208 315.876 161.427 315.876C161.573 315.876 162.156 315.427 162.594 315.127C163.542 314.528 164.344 314.003 165 314.003" fill="#DBFF00"/>
<path d="M179 315.127C178.708 315.127 177.833 315.726 177.323 316.101C176.448 316.7 175.937 317 175.5 317C175.062 317 174.479 316.7 173.604 316.026C173.094 315.651 172.292 315.127 172 315.127C171.708 315.127 170.906 315.651 170.396 316.026C169.521 316.625 169.01 317 168.5 317C167.917 317 167.333 316.55 166.677 316.026C166.094 315.651 165.438 315.127 165 315.127C165 315.202 165 313.928 165 314.003C165.729 314.003 166.531 314.603 167.26 315.127C167.625 315.427 168.281 315.876 168.5 315.876C168.719 315.876 169.375 315.427 169.74 315.127C170.542 314.528 171.344 314.003 171.927 314.003C172.437 314.003 173.094 314.453 174.115 315.127C174.552 315.427 175.208 315.876 175.427 315.876C175.573 315.876 176.156 315.427 176.594 315.127C177.542 314.528 178.344 314.003 179 314.003" fill="#DBFF00"/>
<path d="M193 315.127C192.708 315.127 191.833 315.726 191.323 316.101C190.448 316.7 189.937 317 189.5 317C189.062 317 188.479 316.7 187.604 316.026C187.094 315.651 186.292 315.127 186 315.127C185.708 315.127 184.906 315.651 184.396 316.026C183.521 316.625 183.01 317 182.5 317C181.917 317 181.333 316.55 180.677 316.026C180.094 315.651 179.438 315.127 179 315.127C179 315.202 179 313.928 179 314.003C179.729 314.003 180.531 314.603 181.26 315.127C181.625 315.427 182.281 315.876 182.5 315.876C182.719 315.876 183.375 315.427 183.74 315.127C184.542 314.528 185.344 314.003 185.927 314.003C186.437 314.003 187.094 314.453 188.115 315.127C188.552 315.427 189.208 315.876 189.427 315.876C189.573 315.876 190.156 315.427 190.594 315.127C191.542 314.528 192.344 314.003 193 314.003" fill="#DBFF00"/>
<path d="M207 315.127C206.708 315.127 205.833 315.726 205.323 316.101C204.448 316.7 203.937 317 203.5 317C203.062 317 202.479 316.7 201.604 316.026C201.094 315.651 200.292 315.127 200 315.127C199.708 315.127 198.906 315.651 198.396 316.026C197.521 316.625 197.01 317 196.5 317C195.917 317 195.333 316.55 194.677 316.026C194.094 315.651 193.438 315.127 193 315.127C193 315.202 193 313.928 193 314.003C193.729 314.003 194.531 314.603 195.26 315.127C195.625 315.427 196.281 315.876 196.5 315.876C196.719 315.876 197.375 315.427 197.74 315.127C198.542 314.528 199.344 314.003 199.927 314.003C200.437 314.003 201.094 314.453 202.115 315.127C202.552 315.427 203.208 315.876 203.427 315.876C203.573 315.876 204.156 315.427 204.594 315.127C205.542 314.528 206.344 314.003 207 314.003" fill="#DBFF00"/>
<path d="M221 315.127C220.708 315.127 219.833 315.726 219.323 316.101C218.448 316.7 217.937 317 217.5 317C217.062 317 216.479 316.7 215.604 316.026C215.094 315.651 214.292 315.127 214 315.127C213.708 315.127 212.906 315.651 212.396 316.026C211.521 316.625 211.01 317 210.5 317C209.917 317 209.333 316.55 208.677 316.026C208.094 315.651 207.438 315.127 207 315.127C207 315.202 207 313.928 207 314.003C207.729 314.003 208.531 314.603 209.26 315.127C209.625 315.427 210.281 315.876 210.5 315.876C210.719 315.876 211.375 315.427 211.74 315.127C212.542 314.528 213.344 314.003 213.927 314.003C214.437 314.003 215.094 314.453 216.115 315.127C216.552 315.427 217.208 315.876 217.427 315.876C217.573 315.876 218.156 315.427 218.594 315.127C219.542 314.528 220.344 314.003 221 314.003" fill="#DBFF00"/>
</svg>
