<svg width="334" height="494" viewBox="0 0 334 494" fill="none" xmlns="http://www.w3.org/2000/svg">
<path d="M301.163 34.5708C184.363 -26.2292 65.8292 9.23749 21.1625 34.5708C-18.0375 276.171 8.82917 434.571 27.1625 483.571H293.163C325.962 321.171 312.163 116.571 301.163 34.5708Z" stroke="black" stroke-width="2"/>
<path d="M321.163 44.5708C204.363 -16.2292 85.8292 19.2375 41.1625 44.5708C1.9625 286.171 28.8292 444.571 47.1625 493.571H313.163C345.962 331.171 332.163 126.571 321.163 44.5708Z" fill="#4FD54D"/>
<path d="M64 302H101.5M101.5 302C122.211 302 139 318.621 139 339.125C139 359.629 122.211 376.25 101.5 376.25H64L122.333 434M101.5 302H164M64 339.125H164" stroke="#A8E4F8" stroke-opacity="0.37" stroke-width="15" stroke-linecap="round" stroke-linejoin="round"/>
<circle cx="177" cy="134" r="85.5" fill="white" stroke="url(#paint0_linear_61_99)" stroke-width="3"/>
<path d="M143 312.127C142.708 312.127 141.833 312.726 141.323 313.101C140.448 313.7 139.937 314 139.5 314C139.062 314 138.479 313.7 137.604 313.026C137.094 312.651 136.292 312.127 136 312.127C135.708 312.127 134.906 312.651 134.396 313.026C133.521 313.625 133.01 314 132.5 314C131.917 314 131.333 313.55 130.677 313.026C130.094 312.651 129.438 312.127 129 312.127C129 312.202 129 310.928 129 311.003C129.729 311.003 130.531 311.603 131.26 312.127C131.625 312.427 132.281 312.876 132.5 312.876C132.719 312.876 133.375 312.427 133.74 312.127C134.542 311.528 135.344 311.003 135.927 311.003C136.437 311.003 137.094 311.453 138.115 312.127C138.552 312.427 139.208 312.876 139.427 312.876C139.573 312.876 140.156 312.427 140.594 312.127C141.542 311.528 142.344 311.003 143 311.003" fill="#DBFF00"/>
<path d="M157 312.127C156.708 312.127 155.833 312.726 155.323 313.101C154.448 313.7 153.937 314 153.5 314C153.062 314 152.479 313.7 151.604 313.026C151.094 312.651 150.292 312.127 150 312.127C149.708 312.127 148.906 312.651 148.396 313.026C147.521 313.625 147.01 314 146.5 314C145.917 314 145.333 313.55 144.677 313.026C144.094 312.651 143.438 312.127 143 312.127C143 312.202 143 310.928 143 311.003C143.729 311.003 144.531 311.603 145.26 312.127C145.625 312.427 146.281 312.876 146.5 312.876C146.719 312.876 147.375 312.427 147.74 312.127C148.542 311.528 149.344 311.003 149.927 311.003C150.437 311.003 151.094 311.453 152.115 312.127C152.552 312.427 153.208 312.876 153.427 312.876C153.573 312.876 154.156 312.427 154.594 312.127C155.542 311.528 156.344 311.003 157 311.003" fill="#DBFF00"/>
<path d="M171 312.127C170.708 312.127 169.833 312.726 169.323 313.101C168.448 313.7 167.937 314 167.5 314C167.062 314 166.479 313.7 165.604 313.026C165.094 312.651 164.292 312.127 164 312.127C163.708 312.127 162.906 312.651 162.396 313.026C161.521 313.625 161.01 314 160.5 314C159.917 314 159.333 313.55 158.677 313.026C158.094 312.651 157.438 312.127 157 312.127C157 312.202 157 310.928 157 311.003C157.729 311.003 158.531 311.603 159.26 312.127C159.625 312.427 160.281 312.876 160.5 312.876C160.719 312.876 161.375 312.427 161.74 312.127C162.542 311.528 163.344 311.003 163.927 311.003C164.437 311.003 165.094 311.453 166.115 312.127C166.552 312.427 167.208 312.876 167.427 312.876C167.573 312.876 168.156 312.427 168.594 312.127C169.542 311.528 170.344 311.003 171 311.003" fill="#DBFF00"/>
<path d="M185 312.127C184.708 312.127 183.833 312.726 183.323 313.101C182.448 313.7 181.937 314 181.5 314C181.062 314 180.479 313.7 179.604 313.026C179.094 312.651 178.292 312.127 178 312.127C177.708 312.127 176.906 312.651 176.396 313.026C175.521 313.625 175.01 314 174.5 314C173.917 314 173.333 313.55 172.677 313.026C172.094 312.651 171.438 312.127 171 312.127C171 312.202 171 310.928 171 311.003C171.729 311.003 172.531 311.603 173.26 312.127C173.625 312.427 174.281 312.876 174.5 312.876C174.719 312.876 175.375 312.427 175.74 312.127C176.542 311.528 177.344 311.003 177.927 311.003C178.437 311.003 179.094 311.453 180.115 312.127C180.552 312.427 181.208 312.876 181.427 312.876C181.573 312.876 182.156 312.427 182.594 312.127C183.542 311.528 184.344 311.003 185 311.003" fill="#DBFF00"/>
<path d="M199 312.127C198.708 312.127 197.833 312.726 197.323 313.101C196.448 313.7 195.937 314 195.5 314C195.062 314 194.479 313.7 193.604 313.026C193.094 312.651 192.292 312.127 192 312.127C191.708 312.127 190.906 312.651 190.396 313.026C189.521 313.625 189.01 314 188.5 314C187.917 314 187.333 313.55 186.677 313.026C186.094 312.651 185.438 312.127 185 312.127C185 312.202 185 310.928 185 311.003C185.729 311.003 186.531 311.603 187.26 312.127C187.625 312.427 188.281 312.876 188.5 312.876C188.719 312.876 189.375 312.427 189.74 312.127C190.542 311.528 191.344 311.003 191.927 311.003C192.437 311.003 193.094 311.453 194.115 312.127C194.552 312.427 195.208 312.876 195.427 312.876C195.573 312.876 196.156 312.427 196.594 312.127C197.542 311.528 198.344 311.003 199 311.003" fill="#DBFF00"/>
<path d="M213 312.127C212.708 312.127 211.833 312.726 211.323 313.101C210.448 313.7 209.937 314 209.5 314C209.062 314 208.479 313.7 207.604 313.026C207.094 312.651 206.292 312.127 206 312.127C205.708 312.127 204.906 312.651 204.396 313.026C203.521 313.625 203.01 314 202.5 314C201.917 314 201.333 313.55 200.677 313.026C200.094 312.651 199.438 312.127 199 312.127C199 312.202 199 310.928 199 311.003C199.729 311.003 200.531 311.603 201.26 312.127C201.625 312.427 202.281 312.876 202.5 312.876C202.719 312.876 203.375 312.427 203.74 312.127C204.542 311.528 205.344 311.003 205.927 311.003C206.437 311.003 207.094 311.453 208.115 312.127C208.552 312.427 209.208 312.876 209.427 312.876C209.573 312.876 210.156 312.427 210.594 312.127C211.542 311.528 212.344 311.003 213 311.003" fill="#DBFF00"/>
<path d="M227 312.127C226.708 312.127 225.833 312.726 225.323 313.101C224.448 313.7 223.937 314 223.5 314C223.062 314 222.479 313.7 221.604 313.026C221.094 312.651 220.292 312.127 220 312.127C219.708 312.127 218.906 312.651 218.396 313.026C217.521 313.625 217.01 314 216.5 314C215.917 314 215.333 313.55 214.677 313.026C214.094 312.651 213.438 312.127 213 312.127C213 312.202 213 310.928 213 311.003C213.729 311.003 214.531 311.603 215.26 312.127C215.625 312.427 216.281 312.876 216.5 312.876C216.719 312.876 217.375 312.427 217.74 312.127C218.542 311.528 219.344 311.003 219.927 311.003C220.437 311.003 221.094 311.453 222.115 312.127C222.552 312.427 223.208 312.876 223.427 312.876C223.573 312.876 224.156 312.427 224.594 312.127C225.542 311.528 226.344 311.003 227 311.003" fill="#DBFF00"/>
<defs>
<linearGradient id="paint0_linear_61_99" x1="177" y1="47" x2="177" y2="221" gradientUnits="userSpaceOnUse">
<stop stop-color="#B8C8FF"/>
<stop offset="0.5" stop-color="#A1EAFC"/>
<stop offset="1" stop-color="#52DDFF"/>
</linearGradient>
</defs>
</svg>
