<svg width="82" height="81" viewBox="0 0 82 81" fill="none" xmlns="http://www.w3.org/2000/svg">
<circle cx="43.5" cy="38.5" r="38" stroke="black"/>
<circle cx="38.5" cy="42.5" r="38.5" fill="#7FDA8E"/>
<path fill-rule="evenodd" clip-rule="evenodd" d="M53.9997 36.6666C53.9997 33.9052 51.7613 31.6666 48.9998 31.6666H35.6665C32.9051 31.6666 30.6665 33.9052 30.6665 36.6666V56.6665C30.6665 59.428 32.9051 61.6665 35.6665 61.6665H48.9998C51.7613 61.6665 53.9997 59.428 53.9997 56.6665V36.6666ZM50.6664 36.6666C50.6664 35.7462 49.9203 35 48.9998 35H35.6665C34.746 35 33.9998 35.7462 33.9998 36.6666V56.6665C33.9998 57.587 34.746 58.3332 35.6665 58.3332H48.9998C49.9203 58.3332 50.6664 57.587 50.6664 56.6665V36.6666Z" fill="white"/>
<path d="M29 28.3333H45.6666C46.5871 28.3333 47.3332 27.5871 47.3332 26.6667C47.3332 25.7462 46.5871 25 45.6666 25H29C26.2386 25 24 27.2386 24 30V53.3332C24 54.2537 24.7462 54.9999 25.6667 54.9999C26.5871 54.9999 27.3333 54.2537 27.3333 53.3332V30C27.3333 29.0795 28.0795 28.3333 29 28.3333Z" fill="white"/>
</svg>
