<svg width="1356" height="663" viewBox="0 0 1356 663" fill="none" xmlns="http://www.w3.org/2000/svg">
<path d="M592 251C448 191.8 430.667 58.3333 440 -1L1385 -33V644L1356 654C1268.8 655.6 1219 583.333 1205 547C1177.8 483.8 1114.33 490 1086 501C1031.6 523.4 979.333 521 960 517C865.6 499.4 858 432.333 866 401C885.2 372.2 867.333 325 856 305C827.2 255.4 754.667 257.667 722 265C675.6 265 616 255.667 592 251Z" fill="#92E3A9" fill-opacity="0.12"/>
<path d="M502 197C444.4 121.8 450.667 30.3333 461 -6L668 -25L1084 153C1082.4 454.6 950.667 399.333 885 334C848.2 273.2 757 269.333 716 275C610.4 282.2 529.333 226 502 197Z" fill="#92E3A9" fill-opacity="0.25"/>
<path d="M874 381C886 345 869 294.667 859 274L865 197L1387 262L1375 656C1361.4 660 1342.67 662.333 1335 663C1250.2 655.8 1212.33 596.667 1204 568C1195.2 545.6 1186.33 534 1183 531C1152.6 492.6 1085.67 504.333 1056 515C966.4 531.8 911.333 504 895 488C858.2 457.6 865.667 404 874 381Z" fill="#92E3A9" fill-opacity="0.21"/>
<path d="M503.5 157C462.7 108.2 457.167 30.6667 459.5 -2L1359 -41.5V642C1341 651.2 1318.83 649.167 1310 647C1256 628.6 1221.17 578.333 1210.5 555.5C1193.7 513.9 1165.5 491.833 1153.5 486C1130.3 472.8 1096.5 480.5 1082.5 486C1073.7 490 1057.5 496 1050.5 498.5C972.5 520.5 923.333 494.333 908.5 478.5C880.9 455.3 883 411.167 887.5 392C896.7 342 880.333 303.5 871 290.5C836.6 233.3 757.667 228.667 722.5 233.5C682.1 237.9 637 231.667 619.5 228C561.9 219.6 518.167 177.167 503.5 157Z" fill="url(#paint0_linear_42_2)"/>
<g clip-path="url(#clip0_42_2)">
<path d="M1138.92 284.998C1157.9 285.676 1178.47 257.292 1164.12 241.406L1169.24 246.502C1180.27 257.517 1170.28 278.833 1158.09 285.742C1150.93 290.631 1139.2 292.292 1132.87 285.687L1127.75 280.591C1130.49 283.317 1134.31 284.94 1138.92 284.998Z" fill="#419973"/>
<path d="M1152.95 237.002C1140.89 236.854 1127.98 247.481 1124.11 260.733C1120.23 273.986 1126.86 284.851 1138.92 284.997C1150.98 285.144 1163.89 274.519 1167.76 261.263C1171.64 248.012 1165.01 237.147 1152.95 237.002Z" fill="url(#paint1_linear_42_2)"/>
<path d="M1138.68 284.583C1150.73 284.73 1163.65 274.105 1167.52 260.85C1169.4 254.439 1168.81 248.585 1166.34 244.234C1169.01 248.625 1169.7 254.646 1167.77 261.261C1163.89 274.515 1150.98 285.14 1138.92 284.995C1132.7 284.92 1127.92 281.988 1125.29 277.346C1127.96 281.75 1132.64 284.51 1138.68 284.583Z" fill="#C7F9CC"/>
<path d="M1146.36 260.8C1147.03 260.807 1147.66 260.906 1148.23 261.087L1148.14 260.391L1149.79 261.739C1150.09 261.957 1150.37 262.336 1150.62 262.611L1150.63 262.613C1152.05 264.191 1152.58 266.649 1151.83 269.403L1136.26 269.264L1134.01 267.284C1135.59 263.01 1142.35 260.765 1146.36 260.8Z" fill="#419973"/>
<path d="M1143.42 257.767L1142.43 256.888L1142.71 256.505C1142.4 255.608 1142.38 254.531 1142.69 253.377C1143.5 250.42 1146.24 248.019 1148.94 247.825L1149.66 246.836L1151.64 248.55C1151.77 248.645 1151.89 248.746 1152 248.856C1153.04 249.883 1153.44 251.568 1152.93 253.467C1152.09 256.564 1149.11 259.058 1146.28 259.032C1145.44 259.025 1144.71 258.794 1144.12 258.395L1144.12 258.391C1143.86 258.219 1143.62 258.007 1143.42 257.767Z" fill="#419973"/>
<path d="M1140.89 251.792C1141.73 248.692 1144.71 246.2 1147.54 246.227C1150.36 246.251 1151.97 248.785 1151.13 251.884C1150.29 254.982 1147.31 257.475 1144.48 257.449C1141.66 257.423 1140.05 254.889 1140.89 251.792Z" fill="white"/>
<path d="M1144.11 258.821C1148.41 258.858 1150.86 262.711 1149.58 267.423L1134.01 267.285C1135.29 262.572 1139.81 258.783 1144.11 258.821Z" fill="white"/>
</g>
<g clip-path="url(#clip1_42_2)">
<mask id="mask0_42_2" style="mask-type:luminance" maskUnits="userSpaceOnUse" x="946" y="597" width="78" height="66">
<path d="M1024 597H946V662.372H1024V597Z" fill="white"/>
</mask>
<g mask="url(#mask0_42_2)">
<path d="M1017.81 652.742L979.607 655.943C979.419 655.96 979.231 655.967 979.039 655.97C978.982 655.97 978.925 655.97 978.868 655.97C978.73 655.97 978.589 655.967 978.451 655.96C978.39 655.957 978.333 655.953 978.273 655.95C978.104 655.94 977.936 655.923 977.768 655.903C977.745 655.899 977.721 655.899 977.698 655.896C977.506 655.873 977.314 655.842 977.123 655.805C977.069 655.795 977.012 655.782 976.958 655.772C976.817 655.745 976.676 655.711 976.534 655.678C976.474 655.664 976.413 655.647 976.353 655.63C976.198 655.59 976.04 655.546 975.885 655.499C975.849 655.489 975.812 655.479 975.775 655.466C975.583 655.405 975.395 655.338 975.203 655.267C975.153 655.251 975.105 655.23 975.055 655.21C974.91 655.153 974.769 655.096 974.628 655.035C974.554 655.005 974.48 654.972 974.406 654.938C974.346 654.911 974.282 654.881 974.221 654.854C974.131 654.81 974.043 654.77 973.952 654.723C973.892 654.692 973.831 654.662 973.774 654.632C973.68 654.585 973.589 654.534 973.495 654.484C973.441 654.454 973.388 654.427 973.334 654.397C973.226 654.336 973.118 654.272 973.011 654.208C972.974 654.185 972.937 654.165 972.9 654.141C972.755 654.054 972.614 653.963 972.473 653.872C972.439 653.849 972.406 653.825 972.372 653.805C972.265 653.734 972.16 653.66 972.053 653.586C972.002 653.549 971.952 653.512 971.902 653.479C971.814 653.415 971.727 653.351 971.639 653.284C971.585 653.243 971.532 653.2 971.478 653.156C971.397 653.092 971.316 653.028 971.236 652.964C971.182 652.921 971.125 652.874 971.071 652.83C970.994 652.763 970.916 652.699 970.839 652.632C970.785 652.584 970.732 652.537 970.678 652.49C970.6 652.42 970.523 652.349 970.446 652.279C970.395 652.231 970.345 652.184 970.294 652.137C970.214 652.06 970.133 651.979 970.056 651.902C970.012 651.858 969.968 651.815 969.925 651.771C969.827 651.67 969.733 651.569 969.635 651.465C969.612 651.441 969.588 651.414 969.565 651.391C969.447 651.263 969.333 651.132 969.222 651.001C969.188 650.964 969.158 650.924 969.128 650.887C969.047 650.792 968.97 650.695 968.892 650.597C968.852 650.547 968.812 650.493 968.771 650.443C968.704 650.355 968.64 650.271 968.573 650.184C968.529 650.123 968.486 650.063 968.442 650.002C968.381 649.918 968.324 649.838 968.267 649.754C968.223 649.69 968.18 649.626 968.139 649.562C968.082 649.478 968.028 649.394 967.975 649.31C967.934 649.246 967.894 649.179 967.854 649.115C967.8 649.027 967.749 648.94 967.699 648.853C967.662 648.785 967.622 648.721 967.585 648.654C967.534 648.563 967.487 648.476 967.437 648.385C967.403 648.321 967.366 648.254 967.332 648.19C967.282 648.096 967.238 647.999 967.191 647.904C967.161 647.841 967.131 647.78 967.1 647.716C967.05 647.609 967.003 647.501 966.956 647.393C966.932 647.34 966.909 647.286 966.885 647.232C966.818 647.071 966.751 646.906 966.69 646.741L953.323 610.975C951.964 607.338 952.566 604.006 954.594 602.039L948.001 608.44C945.973 610.407 945.371 613.742 946.73 617.377L960.094 653.136C960.154 653.301 960.222 653.465 960.289 653.627C960.312 653.68 960.336 653.734 960.359 653.788C960.407 653.896 960.454 654.003 960.504 654.111C960.534 654.175 960.565 654.235 960.595 654.299C960.642 654.397 960.689 654.491 960.736 654.588C960.77 654.655 960.803 654.719 960.84 654.783C960.887 654.874 960.938 654.965 960.988 655.056C961.025 655.123 961.062 655.187 961.102 655.254C961.153 655.341 961.207 655.429 961.257 655.516C961.298 655.58 961.338 655.647 961.378 655.711C961.432 655.795 961.489 655.883 961.543 655.967C961.587 656.031 961.627 656.094 961.671 656.155C961.728 656.239 961.788 656.323 961.845 656.404C961.889 656.464 961.933 656.525 961.977 656.585C961.993 656.609 962.01 656.636 962.03 656.659C962.077 656.723 962.128 656.784 962.175 656.848C962.215 656.898 962.256 656.952 962.296 657.002C962.373 657.1 962.454 657.197 962.531 657.291C962.562 657.328 962.595 657.369 962.625 657.406C962.736 657.537 962.854 657.668 962.969 657.796C962.992 657.819 963.015 657.843 963.036 657.87C963.13 657.974 963.227 658.075 963.325 658.176C963.368 658.219 963.412 658.263 963.456 658.307C963.537 658.387 963.614 658.465 963.695 658.542C963.745 658.589 963.795 658.636 963.846 658.683C963.923 658.754 964.001 658.824 964.078 658.895C964.132 658.942 964.185 658.989 964.239 659.036C964.317 659.104 964.394 659.171 964.471 659.235C964.525 659.282 964.579 659.325 964.636 659.369C964.717 659.433 964.797 659.5 964.878 659.561C964.932 659.604 964.986 659.645 965.039 659.685C965.127 659.752 965.214 659.816 965.302 659.88C965.352 659.917 965.403 659.954 965.453 659.988C965.557 660.062 965.665 660.136 965.772 660.206C965.806 660.23 965.84 660.253 965.873 660.273C966.014 660.368 966.156 660.455 966.3 660.542C966.337 660.566 966.374 660.586 966.411 660.61C966.519 660.674 966.626 660.737 966.734 660.798C966.788 660.828 966.842 660.855 966.895 660.885C966.989 660.936 967.08 660.986 967.174 661.033C967.235 661.064 967.292 661.094 967.353 661.124C967.44 661.168 967.531 661.212 967.622 661.255C967.682 661.285 967.746 661.312 967.806 661.339C967.85 661.359 967.891 661.38 967.934 661.4C967.965 661.413 967.995 661.423 968.025 661.437C968.166 661.497 968.311 661.554 968.452 661.612C968.502 661.632 968.549 661.652 968.6 661.669C968.788 661.739 968.98 661.807 969.171 661.867C969.208 661.881 969.245 661.887 969.282 661.901C969.437 661.948 969.592 661.992 969.75 662.032C969.81 662.049 969.871 662.062 969.931 662.079C970.072 662.113 970.214 662.146 970.355 662.173C970.409 662.183 970.466 662.197 970.52 662.207C970.711 662.244 970.903 662.274 971.095 662.297C971.118 662.301 971.142 662.301 971.165 662.304C971.333 662.324 971.501 662.341 971.67 662.351C971.73 662.355 971.787 662.358 971.848 662.361C971.989 662.368 972.127 662.371 972.265 662.371C972.322 662.371 972.379 662.371 972.436 662.371C972.628 662.368 972.816 662.361 973.004 662.345L1011.21 659.144C1012.93 658.999 1014.35 658.347 1015.4 657.335L1021.99 650.934C1020.96 651.946 1019.54 652.598 1017.81 652.742Z" fill="#E6A6C8"/>
<path d="M1023.27 641.998L1009.91 606.239C1007.85 600.728 1002.06 596.606 996.99 597.03L958.787 600.231C953.71 600.654 951.266 605.469 953.324 610.979L966.688 646.738C968.745 652.245 974.532 656.37 979.608 655.944L1017.81 652.743C1022.89 652.316 1025.33 647.505 1023.27 641.998Z" fill="url(#paint2_linear_42_2)"/>
<path d="M1018.26 652.289L980.055 655.49C974.979 655.913 969.196 651.791 967.135 646.284L953.771 610.525C952.48 607.073 952.957 603.896 954.742 601.898C952.597 603.845 951.928 607.247 953.32 610.973L966.684 646.732C968.742 652.239 974.528 656.364 979.605 655.937L1017.81 652.736C1019.7 652.578 1021.23 651.805 1022.3 650.615C1021.27 651.553 1019.91 652.151 1018.26 652.289Z" fill="#FFDDE1"/>
<path d="M984.866 637.635L985.213 637.612C985.549 637.588 985.818 637.444 985.996 637.218V637.215C986.023 637.181 986.05 637.144 986.073 637.104L987.449 635.114L986.339 634.831C986.339 634.831 986.084 634.828 985.771 634.824L982.516 625.357C982.412 625.051 982.234 624.775 982.015 624.54L982.126 623.548L980.761 622.18L979.423 624.194C979.117 624.51 979.016 625.024 979.211 625.589L982.836 636.132C983.138 637.017 984.049 637.692 984.866 637.635Z" fill="#E6A6C8"/>
<path d="M999.323 636.621L999.666 636.597C1000.1 636.567 1000.42 636.338 1000.58 635.995L1001.93 634.039L1000.82 633.756C1000.82 633.756 1000.54 633.753 1000.2 633.746L996.966 624.339C996.866 624.043 996.694 623.771 996.486 623.542L996.607 622.47L995.242 621.102L993.816 623.243C993.772 623.297 993.732 623.354 993.698 623.418L993.692 623.428V623.431C993.537 623.737 993.514 624.141 993.661 624.571L997.286 635.115C997.595 636.006 998.506 636.678 999.323 636.621Z" fill="#E6A6C8"/>
<path d="M998.758 620.456C998.782 620.453 998.802 620.446 998.829 620.44C998.856 620.433 998.883 620.426 998.913 620.419C998.94 620.409 998.964 620.403 998.987 620.392C999.011 620.382 999.031 620.376 999.054 620.366C999.078 620.355 999.101 620.342 999.122 620.329C999.142 620.318 999.165 620.308 999.185 620.295C999.206 620.281 999.226 620.268 999.246 620.255C999.266 620.241 999.286 620.228 999.306 620.211C999.323 620.194 999.34 620.181 999.36 620.164C999.377 620.147 999.397 620.13 999.414 620.113C999.434 620.093 999.448 620.073 999.464 620.05C999.478 620.033 999.495 620.016 999.508 619.996L1000.85 617.975L998.947 617.252L998.785 617.39C998.691 617.316 998.59 617.246 998.489 617.185L983.616 607.479C983.505 607.398 983.39 607.324 983.276 607.267L983.269 607.26C982.826 606.934 982.345 606.786 981.921 606.816C981.498 606.847 981.134 607.052 980.933 607.425L973.136 618.964C973.092 619.017 973.055 619.071 973.022 619.132V619.135C972.998 619.179 972.978 619.226 972.958 619.273C972.948 619.296 972.944 619.317 972.934 619.34C972.924 619.367 972.914 619.394 972.911 619.421C972.904 619.448 972.897 619.475 972.894 619.501C972.887 619.525 972.884 619.549 972.881 619.575C972.877 619.602 972.874 619.633 972.874 619.66C972.871 619.686 972.867 619.71 972.867 619.74C972.867 619.767 972.867 619.794 972.867 619.824C972.867 619.855 972.867 619.881 972.867 619.912C972.871 619.939 972.874 619.969 972.877 619.996C972.881 620.026 972.884 620.056 972.887 620.086C972.894 620.12 972.901 620.15 972.908 620.184C972.914 620.211 972.918 620.238 972.924 620.265C972.955 620.382 972.995 620.503 973.045 620.621C973.055 620.648 973.069 620.671 973.082 620.698C973.099 620.729 973.113 620.759 973.129 620.793C973.146 620.819 973.163 620.85 973.18 620.88C973.197 620.907 973.213 620.934 973.227 620.961C973.244 620.988 973.264 621.014 973.284 621.041C973.301 621.068 973.318 621.095 973.338 621.119C973.358 621.146 973.378 621.169 973.398 621.193C973.419 621.22 973.442 621.246 973.462 621.273C973.482 621.297 973.506 621.32 973.526 621.341C973.55 621.367 973.573 621.391 973.597 621.418C973.62 621.445 973.647 621.468 973.674 621.492C973.698 621.512 973.718 621.532 973.741 621.552C973.792 621.596 973.842 621.636 973.896 621.677C973.946 621.714 974.004 621.751 974.057 621.788C974.081 621.805 974.108 621.818 974.131 621.831C974.162 621.848 974.192 621.868 974.222 621.885C974.252 621.899 974.279 621.912 974.309 621.926C974.336 621.939 974.363 621.952 974.39 621.963C974.42 621.976 974.447 621.986 974.481 621.996C974.508 622.006 974.535 622.02 974.565 622.026C974.592 622.036 974.622 622.043 974.649 622.05C974.679 622.06 974.706 622.067 974.736 622.073C974.763 622.08 974.794 622.084 974.821 622.09C974.851 622.097 974.881 622.1 974.908 622.107C974.938 622.11 974.972 622.11 974.999 622.114C975.026 622.117 975.049 622.121 975.076 622.121C975.133 622.121 975.187 622.121 975.244 622.117L998.6 620.483C998.654 620.473 998.708 620.466 998.758 620.456ZM978.455 618.21L983.353 610.965L992.908 617.202L978.455 618.21Z" fill="#E6A6C8"/>
<path d="M1008.24 638.793H1006.5C1006.08 638.191 1005.39 637.788 1004.74 637.831L985.209 639.196L986.336 638.692L981.632 637.828L980.24 639.902C980.223 639.926 980.207 639.95 980.19 639.976L980.166 640.01C979.988 640.323 979.954 640.743 980.109 641.197L980.237 641.57C980.543 642.458 981.45 643.13 982.271 643.073L1005.97 641.415C1006.39 641.385 1006.7 641.167 1006.87 640.844L1008.24 638.793Z" fill="#E6A6C8"/>
<path d="M988.027 621.594L986.598 623.742C986.332 624.061 986.255 624.546 986.436 625.08L990.061 635.624C990.367 636.511 991.274 637.184 992.091 637.126L992.438 637.103C992.868 637.073 993.184 636.844 993.345 636.508L994.714 634.528L993.604 634.245C993.604 634.245 993.312 634.242 992.969 634.235L989.741 624.848C989.64 624.556 989.476 624.29 989.271 624.061L989.395 622.959L988.027 621.594Z" fill="#E6A6C8"/>
<path d="M987.486 633.878L983.858 623.334C983.552 622.447 982.641 621.774 981.824 621.832L981.478 621.855C980.661 621.912 980.244 622.675 980.55 623.566L984.174 634.11C984.48 634.997 985.391 635.67 986.208 635.613L986.554 635.589C987.375 635.532 987.788 634.765 987.486 633.878Z" fill="white"/>
<path d="M994.714 633.37L991.086 622.826C990.78 621.939 989.869 621.266 989.052 621.324L988.706 621.347C987.889 621.404 987.476 622.168 987.781 623.058L991.406 633.602C991.712 634.49 992.619 635.162 993.436 635.105L993.783 635.081C994.603 635.024 995.017 634.258 994.714 633.37Z" fill="white"/>
<path d="M1001.94 632.873L998.315 622.326C998.009 621.439 997.101 620.766 996.281 620.824L995.938 620.847C995.121 620.904 994.704 621.668 995.01 622.558L998.634 633.102C998.94 633.99 999.848 634.662 1000.67 634.605L1001.01 634.581C1001.83 634.524 1002.24 633.758 1001.94 632.873Z" fill="white"/>
<path d="M1008.25 637.684L1008.13 637.311C1007.82 636.423 1006.91 635.751 1006.09 635.808L982.396 637.466C981.579 637.523 981.162 638.286 981.468 639.173L981.595 639.547C981.901 640.434 982.809 641.107 983.629 641.049L1007.33 639.392C1008.14 639.338 1008.56 638.572 1008.25 637.684Z" fill="white"/>
<path d="M1001.09 617.071C1001.09 617.044 1001.08 617.014 1001.08 616.987C1001.08 616.957 1001.07 616.927 1001.07 616.896C1001.07 616.863 1001.05 616.832 1001.05 616.799C1001.04 616.772 1001.04 616.745 1001.03 616.718C1001 616.6 1000.96 616.479 1000.91 616.362C1000.9 616.335 1000.88 616.311 1000.87 616.284C1000.86 616.251 1000.85 616.221 1000.83 616.19C1000.81 616.163 1000.79 616.133 1000.78 616.103C1000.76 616.076 1000.75 616.049 1000.73 616.022C1000.71 615.995 1000.69 615.968 1000.68 615.941C1000.65 615.915 1000.64 615.888 1000.62 615.864C1000.6 615.837 1000.58 615.814 1000.56 615.787C1000.54 615.76 1000.52 615.733 1000.49 615.71C1000.47 615.686 1000.45 615.662 1000.43 615.642C1000.41 615.615 1000.38 615.592 1000.36 615.565C1000.33 615.538 1000.31 615.515 1000.28 615.491C1000.25 615.471 1000.23 615.451 1000.21 615.43C1000.09 615.33 999.966 615.235 999.831 615.161L984.957 605.455C984.846 605.375 984.732 605.301 984.618 605.243L984.611 605.237C984.167 604.911 983.686 604.763 983.263 604.793C982.839 604.823 982.476 605.028 982.274 605.401L974.485 616.94C974.441 616.994 974.404 617.048 974.37 617.108V617.111C974.347 617.155 974.326 617.202 974.306 617.249C974.296 617.273 974.293 617.293 974.283 617.317C974.273 617.343 974.263 617.37 974.259 617.397C974.253 617.424 974.246 617.451 974.242 617.478C974.236 617.501 974.232 617.525 974.229 617.552C974.226 617.579 974.222 617.609 974.222 617.636C974.219 617.663 974.216 617.686 974.216 617.717C974.216 617.744 974.216 617.77 974.216 617.801C974.216 617.831 974.216 617.858 974.216 617.888C974.219 617.915 974.222 617.945 974.226 617.972C974.229 618.002 974.232 618.033 974.236 618.063C974.242 618.097 974.249 618.127 974.256 618.16C974.263 618.187 974.266 618.214 974.273 618.241C974.303 618.359 974.343 618.48 974.394 618.598C974.404 618.624 974.417 618.648 974.431 618.675C974.448 618.705 974.461 618.735 974.478 618.769C974.495 618.796 974.511 618.826 974.528 618.856C974.545 618.883 974.562 618.91 974.575 618.937C974.592 618.964 974.612 618.991 974.632 619.018C974.649 619.045 974.666 619.072 974.686 619.095C974.706 619.122 974.727 619.146 974.747 619.169C974.767 619.196 974.79 619.223 974.811 619.25C974.831 619.273 974.854 619.297 974.875 619.317C974.898 619.344 974.922 619.367 974.945 619.394C974.969 619.421 974.996 619.445 975.022 619.468C975.046 619.488 975.066 619.509 975.09 619.529C975.14 619.573 975.191 619.613 975.244 619.653C975.295 619.69 975.352 619.727 975.406 619.764C975.429 619.781 975.456 619.794 975.48 619.808C975.51 619.825 975.54 619.845 975.57 619.862C975.601 619.875 975.628 619.889 975.658 619.902C975.685 619.915 975.712 619.929 975.739 619.939C975.769 619.952 975.796 619.963 975.829 619.973C975.856 619.983 975.883 619.996 975.913 620.003C975.94 620.013 975.971 620.02 975.997 620.026C976.028 620.036 976.055 620.043 976.085 620.05C976.112 620.057 976.142 620.06 976.169 620.067C976.199 620.073 976.229 620.077 976.256 620.084C976.287 620.087 976.32 620.087 976.347 620.09C976.374 620.094 976.398 620.097 976.424 620.097C976.482 620.097 976.535 620.097 976.593 620.094L999.949 618.46C1000 618.456 1000.06 618.45 1000.11 618.44C1000.13 618.436 1000.16 618.429 1000.18 618.423C1000.21 618.416 1000.23 618.409 1000.26 618.403C1000.29 618.392 1000.32 618.386 1000.34 618.376C1000.36 618.366 1000.38 618.359 1000.41 618.349C1000.43 618.339 1000.45 618.325 1000.47 618.312C1000.49 618.302 1000.52 618.292 1000.54 618.278C1000.56 618.265 1000.58 618.251 1000.6 618.238C1000.62 618.224 1000.64 618.211 1000.66 618.194C1000.68 618.177 1000.69 618.164 1000.71 618.147C1000.73 618.13 1000.75 618.113 1000.77 618.097C1000.79 618.076 1000.8 618.056 1000.82 618.033C1000.83 618.016 1000.85 617.999 1000.86 617.979C1000.92 617.898 1000.97 617.811 1001 617.713C1001.01 617.69 1001.02 617.67 1001.02 617.646C1001.03 617.619 1001.04 617.592 1001.05 617.565C1001.06 617.538 1001.07 617.512 1001.07 617.485C1001.08 617.461 1001.08 617.438 1001.08 617.411C1001.09 617.384 1001.09 617.354 1001.09 617.327C1001.09 617.3 1001.1 617.276 1001.1 617.246C1001.1 617.219 1001.1 617.192 1001.1 617.162C1001.09 617.128 1001.09 617.101 1001.09 617.071ZM979.803 616.19L984.702 608.945L994.257 615.182L979.803 616.19Z" fill="white"/>
</g>
</g>
<path d="M55 106C58.3137 106 61 103.314 61 100C61 96.6863 58.3137 94 55 94C51.6863 94 49 96.6863 49 100C49 103.314 51.6863 106 55 106Z" fill="#6640FF"/>
<path d="M55.3245 174.78C56.4078 176.104 56.2038 178.108 54.5992 178.74C52.1623 179.701 49.9179 179.455 48.1539 179.264C46.0025 179.031 44.9932 178.969 43.6242 180.041C42.2589 181.112 42.0947 182.088 41.8599 184.196C41.5979 186.542 41.238 189.756 37.7878 192.46C34.3376 195.165 31.0517 194.806 28.6538 194.546C26.5023 194.312 25.4931 194.251 24.124 195.322C22.7587 196.394 22.5945 197.369 22.3598 199.473C22.0977 201.819 21.7378 205.033 18.2876 207.738C14.8375 210.443 11.5516 210.084 9.15364 209.823C8.51876 209.754 7.98329 209.701 7.50876 209.686C5.79003 209.635 3.75292 209.536 2.67554 208.22C1.59222 206.896 1.79617 204.892 3.40079 204.26C5.83765 203.299 8.08206 203.545 9.84599 203.736C11.9975 203.969 13.0068 204.031 14.3758 202.959C15.7411 201.888 15.9053 200.912 16.1401 198.808C16.4021 196.463 16.762 193.249 20.2122 190.543C23.6624 187.839 26.9483 188.198 29.3462 188.458C31.4976 188.692 32.5069 188.753 33.876 187.682C35.2452 186.61 35.4055 185.635 35.6402 183.527C35.9023 181.181 36.2622 177.967 39.7123 175.262C43.1625 172.557 46.4484 172.916 48.8464 173.177C49.4812 173.246 50.0167 173.299 50.4912 173.314C52.21 173.365 54.2471 173.464 55.3245 174.78Z" fill="#CCFBD9"/>
<path d="M52.337 171.78C53.4002 173.104 53.2 175.108 51.6252 175.74C49.2334 176.701 47.0306 176.455 45.2993 176.264C43.1877 176.031 42.1971 175.969 40.8533 177.041C39.5134 178.112 39.3522 179.088 39.1218 181.196C38.8646 183.542 38.5113 186.756 35.125 189.46C31.7388 192.165 28.5137 191.806 26.1602 191.546C24.0486 191.312 23.0581 191.251 21.7143 192.322C20.3744 193.394 20.2131 194.369 19.9827 196.473C19.7255 198.819 19.3723 202.033 15.986 204.738C12.5997 207.443 9.3747 207.084 7.02117 206.823C6.39804 206.754 5.87249 206.701 5.40674 206.686C3.71983 206.635 1.72046 206.536 0.663034 205.22C-0.400227 203.896 -0.200059 201.892 1.37485 201.26C3.7666 200.299 5.96949 200.545 7.70075 200.736C9.81239 200.969 10.8029 201.031 12.1467 199.959C13.4866 198.888 13.6478 197.912 13.8782 195.808C14.1354 193.463 14.4887 190.249 17.875 187.543C21.2613 184.839 24.4863 185.198 26.8398 185.458C28.9514 185.692 29.9419 185.753 31.2857 184.682C32.6295 183.61 32.7869 182.635 33.0173 180.527C33.2745 178.181 33.6277 174.967 37.014 172.262C40.4003 169.557 43.6253 169.916 45.9788 170.177C46.602 170.246 47.1275 170.299 47.5933 170.314C49.2802 170.365 51.2795 170.464 52.337 171.78Z" fill="#040404"/>
<defs>
<linearGradient id="paint0_linear_42_2" x1="859" y1="-42" x2="1283" y2="734" gradientUnits="userSpaceOnUse">
<stop stop-color="#B3F0C4"/>
<stop offset="0.536" stop-color="#9EECB4"/>
<stop offset="1" stop-color="#92E3A9"/>
</linearGradient>
<linearGradient id="paint1_linear_42_2" x1="1159.25" y1="283.652" x2="1135.14" y2="245.092" gradientUnits="userSpaceOnUse">
<stop stop-color="#57CC99"/>
<stop offset="0.2184" stop-color="#63D699"/>
<stop offset="0.6903" stop-color="#78E799"/>
<stop offset="1" stop-color="#80ED99"/>
</linearGradient>
<linearGradient id="paint2_linear_42_2" x1="969.329" y1="660.524" x2="1006.11" y2="594.525" gradientUnits="userSpaceOnUse">
<stop offset="0.0628" stop-color="#FFB8DE"/>
<stop offset="0.3606" stop-color="#FFBDDE"/>
<stop offset="0.6979" stop-color="#FFCADF"/>
<stop offset="1" stop-color="#FFDDE1"/>
</linearGradient>
<clipPath id="clip0_42_2">
<rect width="51" height="54" fill="white" transform="translate(1123 237)"/>
</clipPath>
<clipPath id="clip1_42_2">
<rect width="78" height="66" fill="white" transform="translate(946 597)"/>
</clipPath>
</defs>
</svg>
